<?xml version="1.0" encoding="UTF-8"?>
<svg version="1.1" xmlns="http://www.w3.org/2000/svg" width="1536" height="1024">
<path d="M0 0 C506.88 0 1013.76 0 1536 0 C1536 337.92 1536 675.84 1536 1024 C1029.12 1024 522.24 1024 0 1024 C0 686.08 0 348.16 0 0 Z " fill="#FEFEFE" transform="translate(0,0)"/>
<path d="M0 0 C21.45 0 42.9 0 65 0 C65 32.67 65 65.34 65 99 C98.33 99 131.66 99 166 99 C166 66.33 166 33.66 166 0 C187.78 0 209.56 0 232 0 C232 84.48 232 168.96 232 256 C209.89 256 187.78 256 165 256 C165 222.01 165 188.02 165 153 C132 153 99 153 65 153 C65 186.99 65 220.98 65 256 C43.55 256 22.1 256 0 256 C0 171.52 0 87.04 0 0 Z " fill="#035F7F" transform="translate(1133,243)"/>
<path d="M0 0 C23.76 0 47.52 0 72 0 C79.4746269 21.72313442 86.84742323 43.4616206 93.9375 65.3125 C99.68582941 83.02391734 105.58813724 100.67518916 111.62768555 118.28930664 C112.24144387 120.07956579 112.85513278 121.86984873 113.46875 123.66015625 C113.76743484 124.53156754 114.06611969 125.40297882 114.37385559 126.30079651 C117.38494234 135.09983879 120.32244847 143.92288267 123.25 152.75 C128.71014458 169.2094236 134.3258373 185.61323454 140 202 C141.68768049 199.46847926 142.56226062 197.70667931 143.51782227 194.89477539 C143.80380783 194.05979019 144.0897934 193.22480499 144.38444519 192.36451721 C144.84576591 190.99492104 144.84576591 190.99492104 145.31640625 189.59765625 C145.80884575 188.15150185 145.80884575 188.15150185 146.31123352 186.6761322 C147.39989042 183.47322739 148.48150853 180.2679994 149.5625 177.0625 C150.32370643 174.81444498 151.08493728 172.56639824 151.84619141 170.31835938 C159.77553971 146.85516558 167.46545293 123.31402489 175.10601807 99.75549316 C175.92044694 97.24520395 176.73599213 94.73528219 177.55224609 92.22558594 C183.56756916 73.73011385 189.5049845 55.20967584 195.4375 36.6875 C195.78515411 35.6026532 196.13280823 34.5178064 196.49099731 33.40008545 C197.49352662 30.27089502 198.49497801 27.14136167 199.49609375 24.01171875 C199.79047333 23.09316605 200.08485291 22.17461334 200.38815308 21.22822571 C202.64484745 14.16693434 204.81950741 7.0866009 207 0 C231.09 0 255.18 0 280 0 C271.93798185 23.03433759 271.93798185 23.03433759 268.90625 31.265625 C268.5577298 32.21533676 268.20920959 33.16504852 267.85012817 34.14353943 C266.73518037 37.17967725 265.61777058 40.21490037 264.5 43.25 C264.10882996 44.31368805 263.71765991 45.3773761 263.31463623 46.47329712 C257.84072643 61.35703685 252.31506679 76.22047709 246.73123169 91.06329346 C235.5664922 120.74259385 224.59854977 150.49596019 213.64035034 180.25204468 C212.81973621 182.48035069 211.99887843 184.70856683 211.17797852 186.93676758 C208.72312841 193.60098679 206.2693969 200.26560871 203.82080078 206.93212891 C201.88849383 212.19283811 199.95316846 217.45242947 198.01620483 222.71142578 C197.26447491 224.75415311 196.51381713 226.79727535 195.76431274 228.84082031 C194.7180639 231.69309359 193.66802638 234.54394641 192.6171875 237.39453125 C192.31047623 238.23349442 192.00376495 239.07245758 191.6877594 239.93684387 C191.39231735 240.73603745 191.09687531 241.53523102 190.79248047 242.35864258 C190.54158661 243.04122635 190.29069275 243.72381012 190.03219604 244.42707825 C188.46596363 248.33117523 186.70844149 252.15600665 185 256 C155.3 256 125.6 256 95 256 C93.02 250.39 91.04 244.78 89 239 C86.76659334 232.91707815 86.76659334 232.91707815 84.51196289 226.84228516 C84.25593292 226.15644348 83.99990295 225.47060181 83.7361145 224.76397705 C83.34080032 223.70518341 83.34080032 223.70518341 82.9375 222.625 C82.37152203 221.1060097 81.80568907 219.58696537 81.23999023 218.06787109 C80.36422891 215.71625819 79.48834512 213.36469161 78.6118927 211.01333618 C76.65438716 205.76115703 74.70378671 200.50646157 72.7578125 195.25 C66.93939953 179.53874047 61.06443692 163.85048104 55.12207031 148.18566895 C50.72712438 136.59749003 46.3740051 124.9944871 42.0625 113.375 C41.80509033 112.68140381 41.54768066 111.98780762 41.2824707 111.27319336 C39.00324703 105.12935889 36.72564366 98.98496576 34.47241211 92.83154297 C30.86895722 82.99950867 27.19819671 73.19370741 23.49609375 63.3984375 C23.12946719 62.42819452 23.12946719 62.42819452 22.75543404 61.43835068 C20.47041336 55.39178819 18.18391554 49.34578542 15.89477539 43.30078125 C14.62719936 39.95318959 13.36150406 36.60489148 12.09687996 33.25618362 C11.40159716 31.41664177 10.70431565 29.57785574 10.00694275 27.73910522 C6.53175227 18.53409689 3.2770714 9.28503562 0 0 Z " fill="#035F7F" transform="translate(581,243)"/>
<path d="M0 0 C26.73 0 53.46 0 81 0 C84.96 10.56 88.92 21.12 93 32 C95.62166981 38.95961302 98.24519424 45.9184662 100.875 52.875 C101.22072052 53.78999268 101.56644104 54.70498535 101.92263794 55.64770508 C107.17509187 69.54868078 112.44380371 83.44344956 117.71801758 97.33618164 C134.96444334 142.76561063 152.13966827 188.22222602 169.125 233.75 C169.53535492 234.84851288 169.94570984 235.94702576 170.36849976 237.0788269 C171.50006007 240.10917982 172.62937325 243.14035872 173.7578125 246.171875 C174.09078842 247.06300491 174.42376434 247.95413483 174.76683044 248.87226868 C177 254.88484594 177 254.88484594 177 256 C153.57 256 130.14 256 106 256 C101.50055257 244.75138142 101.50055257 244.75138142 99.85620117 239.94750977 C99.48390884 238.86413834 99.11161652 237.78076691 98.7280426 236.66456604 C98.33696823 235.51842331 97.94589386 234.37228058 97.54296875 233.19140625 C96.89971783 231.31710922 96.2564652 229.44281277 95.61313915 227.56854153 C94.93495393 225.59125738 94.25797115 223.61356544 93.58135986 221.63574219 C91.45489761 215.42005541 89.32160102 209.20671379 87.18802643 202.99346542 C86.7105752 201.60302652 86.23321436 200.21255658 85.7559433 198.82205582 C81.88656576 187.55012711 77.96855461 176.29584036 74.02047729 165.05123901 C66.9728121 144.97225041 60.20356403 124.80587296 53.52296448 104.60206604 C51.72294177 99.1635046 49.90104641 93.73291664 48.05859375 88.30859375 C47.62538452 87.02868095 47.19227468 85.7487345 46.75927734 84.46875 C45.98956744 82.19761903 45.21550668 79.92795549 44.43603516 77.66015625 C44.10780762 76.68820312 43.77958008 75.71625 43.44140625 74.71484375 C43.01903687 73.47915649 43.01903687 73.47915649 42.58813477 72.21850586 C42 70 42 70 42 66 C41.34 66 40.68 66 40 66 C39.8983252 66.79253174 39.79665039 67.58506348 39.69189453 68.40161133 C38.81852652 72.94380298 37.40428321 77.1960405 35.9296875 81.57421875 C35.61154083 82.52915726 35.29339417 83.48409576 34.96560669 84.4679718 C34.2834279 86.51216537 33.59902974 88.55561942 32.91259766 90.59838867 C31.9220087 93.5475468 30.93880754 96.49907041 29.95703125 99.45117188 C26.02429743 111.23097488 21.97105025 122.96521094 17.86125183 134.68408203 C9.19461561 159.39681339 0.84824676 184.20880086 -7.40039062 209.06384277 C-9.48363503 215.33834148 -11.57173213 221.611227 -13.65894318 227.88440704 C-16.77619222 237.25509211 -19.88756702 246.62770806 -23 256 C-46.76 256 -70.52 256 -95 256 C-93.87508174 249.25049045 -93.87508174 249.25049045 -92.61157227 245.94970703 C-92.32864822 245.2021666 -92.04572418 244.45462616 -91.75422668 243.68443298 C-91.44474594 242.88364822 -91.1352652 242.08286346 -90.81640625 241.2578125 C-90.48988571 240.39922134 -90.16336517 239.54063019 -89.82695007 238.65602112 C-89.11733415 236.79191774 -88.40518449 234.92877735 -87.6907959 233.0664978 C-86.14121743 229.02670499 -84.60405237 224.98222125 -83.06582642 220.93809509 C-82.25770323 218.81403647 -81.44891599 216.69023038 -80.63949585 214.56666565 C-76.84059765 204.59799505 -73.08848475 194.61209852 -69.34829712 184.62127686 C-68.23369279 181.6439401 -67.11829947 178.6669 -66.00268555 175.68994141 C-64.46215545 171.57903125 -62.92189668 167.4680196 -61.38183594 163.35693359 C-57.65031271 153.39677319 -53.91481881 143.43810159 -50.17980957 133.47924805 C-48.87202665 129.99207162 -47.56440523 126.50483467 -46.25683594 123.01757812 C-41.96249355 111.5648472 -37.66725276 100.11245534 -33.36964417 88.66094971 C-31.00574269 82.36203142 -28.64227237 76.06295138 -26.27898788 69.76380157 C-25.76106452 68.3833371 -25.24312283 67.0028795 -24.72516251 65.62242889 C-17.94383066 47.54888656 -11.17399827 29.47124741 -4.48828125 11.36206055 C-4.25052475 10.71918594 -4.01276825 10.07631134 -3.76780701 9.41395569 C-3.15294482 7.75108801 -2.539419 6.08772637 -1.92602539 4.42431641 C-1 2 -1 2 0 0 Z " fill="#035F80" transform="translate(923,243)"/>
<path d="M0 0 C2.09602772 0.02053394 4.19210848 0.03618373 6.28820801 0.04716492 C11.78710456 0.08902975 17.28276987 0.19695453 22.78039551 0.31890869 C28.39742317 0.43173671 34.01497664 0.48173815 39.6328125 0.53710938 C50.64203949 0.65484069 61.64887537 0.84240557 72.65625 1.07421875 C71.70695073 2.51406822 70.75553046 3.95251944 69.80322266 5.39038086 C69.27362946 6.19156845 68.74403625 6.99275604 68.19839478 7.81822205 C66.30826359 10.58328651 64.22515766 13.10731662 62.03125 15.63671875 C58.09120361 20.2540786 54.39482894 25.0102668 50.78125 29.88671875 C46.31590163 35.90804275 41.72406328 41.80277454 37.01831055 47.63769531 C33.82604205 51.59993458 30.68507427 55.59525783 27.59375 59.63671875 C24.2284649 64.03634396 20.83438605 68.41086134 17.40625 72.76171875 C12.6002373 78.86343658 7.82308655 84.98712029 3.05957031 91.12207031 C0.09573172 94.93915957 -2.87273042 98.75234165 -5.85546875 102.5546875 C-15.70095118 115.12271491 -25.16444477 127.95033971 -34.55322266 140.86157227 C-35.26548004 141.8410231 -35.97773743 142.82047394 -36.71157837 143.8296051 C-37.25019501 144.57032761 -37.78881165 145.31105011 -38.34375 146.07421875 C-36.82780495 145.91766563 -36.82780495 145.91766563 -35.28123474 145.75794983 C-22.4680738 144.47745285 -9.64806891 143.64140999 3.21875 143.13671875 C4.23559246 143.09663319 5.25243492 143.05654762 6.30009079 143.01524734 C30.7087205 142.16569668 51.80605373 142.36367204 70.47483826 159.61711121 C73.72829721 162.76789905 76.75547578 166.0886524 79.71875 169.51171875 C80.44749769 170.3516934 80.44749769 170.3516934 81.19096756 171.20863724 C97.65625 190.391831 97.65625 190.391831 97.65625 194.07421875 C75.35129492 194.2611351 53.04646904 194.40219099 30.74088955 194.48871613 C20.38387808 194.52996001 10.02735334 194.58618528 -0.3293457 194.67773438 C-9.35672119 194.75749471 -18.38374419 194.80908979 -27.41146225 194.82692671 C-32.19139904 194.8373529 -36.97032744 194.86183793 -41.74994087 194.9200592 C-46.25065138 194.97443797 -50.74994013 194.99109652 -55.25094795 194.9790802 C-56.90095757 194.98127775 -58.55101562 194.99714854 -60.20074081 195.02786255 C-72.66827916 195.24855659 -72.66827916 195.24855659 -76.80984306 192.34573364 C-78.58022516 190.33991581 -79.94548618 188.34763248 -81.34375 186.07421875 C-82.34822664 184.97116024 -83.37702747 183.88912515 -84.44140625 182.84375 C-84.93318359 182.35068359 -85.42496094 181.85761719 -85.93164062 181.34960938 C-86.41826172 180.86685547 -86.90488281 180.38410156 -87.40625 179.88671875 C-87.89673828 179.39236328 -88.38722656 178.89800781 -88.89257812 178.38867188 C-91.3576438 175.93008469 -93.86341946 173.6038799 -96.55859375 171.3984375 C-99.57607825 168.88034033 -101.83161869 166.08877632 -104.34375 163.07421875 C-105.80701497 161.86543464 -107.27110203 160.65739041 -108.75390625 159.47265625 C-111.22651066 157.2977364 -113.26744179 154.78102481 -115.3984375 152.27734375 C-118.8577708 148.35954459 -122.61166555 144.73013821 -126.34375 141.07421875 C-124.76800385 136.13814647 -121.8769089 132.58592141 -118.71875 128.57421875 C-117.5347568 127.04848698 -116.35118179 125.52243062 -115.16796875 123.99609375 C-114.23090088 122.79243164 -114.23090088 122.79243164 -113.27490234 121.56445312 C-109.99847143 117.33947268 -106.76700831 113.08037559 -103.53125 108.82421875 C-102.17852448 107.04807116 -100.82565845 105.27203058 -99.47265625 103.49609375 C-96.68836276 99.84017807 -93.90463244 96.18383414 -91.12109375 92.52734375 C-84.77677871 84.19482197 -78.42503156 75.86885429 -72.03125 67.57421875 C-68.45159225 62.92066367 -64.89996233 58.24569536 -61.34375 53.57421875 C-54.23788323 44.24232877 -47.12833046 34.91432458 -39.90625 25.671875 C-39.29668457 24.89094482 -38.68711914 24.11001465 -38.05908203 23.30541992 C-36.87946474 21.79514047 -35.6982897 20.28607565 -34.51513672 18.77856445 C-33.68393311 17.71448364 -33.68393311 17.71448364 -32.8359375 16.62890625 C-32.2845813 15.95097015 -31.7332251 15.27303406 -31.16516113 14.57455444 C-29.25972317 12.1198224 -29.25972317 12.1198224 -28.00308228 9.26094055 C-21.84233885 -2.33029705 -11.55516827 -0.33216978 0 0 Z " fill="#61CA6B" transform="translate(361.34375,304.92578125)"/>
<path d="M0 0 C0 60.39 0 120.78 0 183 C-20.79 183 -41.58 183 -63 183 C-63 123.27 -63 63.54 -63 2 C-58.20685018 3.59771661 -53.49959412 5.30116029 -48.78125 7.09765625 C-33.4527699 12.07080078 -18.1135117 8.61173521 -4 2 C-1 0 -1 0 0 0 Z " fill="#025F7F" transform="translate(559,316)"/>
<path d="M0 0 C20.66064312 -1.15896586 41.31449575 -2.01525225 62.00118923 -2.53879642 C71.61467457 -2.78871105 81.20751176 -3.12827533 90.80786133 -3.6965332 C159.96287835 -7.7114804 159.96287835 -7.7114804 183.11420596 12.70644629 C194.7445014 23.34888685 205.35553931 35.81005445 214 49 C214 49.33 214 49.66 214 50 C192.74794857 51.06274811 171.50039876 51.85006688 150.22695637 52.33154774 C140.34189976 52.56134146 130.47370488 52.87391664 120.59936523 53.39477539 C48.54494243 57.12238625 48.54494243 57.12238625 26.13571072 36.99864864 C0.48912533 12.955943 0.48912533 12.955943 -0.17158031 2.2091341 C-0.11495881 1.48011985 -0.05833731 0.75110559 0 0 Z " fill="#046080" transform="translate(219,247)"/>
<path d="M0 0 C0.82465885 -0.07342841 1.6493177 -0.14685682 2.49896622 -0.22251034 C13.39955435 -1.13578254 24.32448613 -1.61778811 35.2565918 -1.94091797 C36.30575272 -1.97458843 37.35491364 -2.0082589 38.43586731 -2.04294968 C62.91391455 -2.74701169 84.85546658 -2.83879635 103.67427063 14.45056152 C106.85869206 17.52308853 109.81028894 20.76745996 112.6940918 24.12158203 C113.16559788 24.66934044 113.63710396 25.21709885 114.1228981 25.78145599 C129.9440918 44.38395883 129.9440918 44.38395883 129.9440918 48.18408203 C73.1840918 48.18408203 16.4240918 48.18408203 -42.0559082 48.18408203 C-40.17428913 44.42084389 -38.00568841 41.14002638 -35.5559082 37.74658203 C-34.89377319 36.82449951 -34.89377319 36.82449951 -34.21826172 35.88378906 C-30.42293489 30.62913518 -26.49127161 25.48740831 -22.5168457 20.36767578 C-15.73164129 12.04705418 -15.73164129 12.04705418 -9.9400177 3.09817505 C-7.08796371 0.20073377 -3.86825693 0.28749796 0 0 Z " fill="#026080" transform="translate(329.055908203125,450.81591796875)"/>
<path d="M0 0 C45.15544041 0 45.15544041 0 54.375 4.875 C55.33148437 5.36742187 56.28796875 5.85984375 57.2734375 6.3671875 C65.47405021 11.27815614 71.9213837 19.01819005 74.5625 28.328125 C76.75487492 41.71727182 74.72973848 53.78190923 66.75 64.93359375 C60.75738103 72.00969963 53.73325428 75.33707329 45 78 C44.01 78.33 43.02 78.66 42 79 C40.60344541 79.08589303 39.20314223 79.11772715 37.80395508 79.11352539 C36.95160278 79.11340454 36.09925049 79.11328369 35.22106934 79.11315918 C34.32956177 79.10804321 33.4380542 79.10292725 32.51953125 79.09765625 C31.69690796 79.09664917 30.87428467 79.09564209 30.0267334 79.09460449 C26.95530808 79.08937449 23.88390263 79.07541322 20.8125 79.0625 C13.944375 79.041875 7.07625 79.02125 0 79 C0 52.93 0 26.86 0 0 Z " fill="#61CA6A" transform="translate(496,546)"/>
<path d="M0 0 C10.085625 -0.0928125 10.085625 -0.0928125 20.375 -0.1875 C22.47665527 -0.21481201 24.57831055 -0.24212402 26.74365234 -0.27026367 C28.44107492 -0.27903935 30.13850389 -0.28668072 31.8359375 -0.29296875 C32.6916333 -0.30831665 33.5473291 -0.32366455 34.42895508 -0.33947754 C43.21628291 -0.34321895 50.88379552 1.33039106 57.52734375 7.3046875 C61.39566058 11.75786921 62.41351016 15.02619085 62.375 20.9375 C62.38660156 22.71447266 62.38660156 22.71447266 62.3984375 24.52734375 C61.77732118 29.94079871 59.37893772 33.8165533 56 38 C56.55429688 38.45890625 57.10859375 38.9178125 57.6796875 39.390625 C58.40414063 40.00421875 59.12859375 40.6178125 59.875 41.25 C60.59429688 41.85328125 61.31359375 42.4565625 62.0546875 43.078125 C65.71090376 46.69029046 66.30923554 49.67298358 66.375 54.75 C66.22184713 62.15539157 64.28603271 67.05443729 59 72.25 C47.60683187 80.73951307 34.22420384 79.4797548 20.75 79.25 C10.47875 79.12625 10.47875 79.12625 0 79 C0 52.93 0 26.86 0 0 Z " fill="#61CA6A" transform="translate(1271,546)"/>
<path d="M0 0 C8.53308836 4.93818907 14.74920492 12.79406293 17.52734375 22.29296875 C19.26816147 32.26310658 19.14598699 43.06005478 14 52 C7.93113744 60.29848397 0.9747728 66.24710572 -9 69 C-21.54607621 70.19907167 -32.1898809 68.90688844 -42.375 60.8125 C-49.36380451 54.12945569 -53.49148308 45.80064068 -54.3359375 36.16796875 C-54.44966643 24.57899056 -52.62300129 16.22332485 -45.125 7.109375 C-32.39947909 -5.52257591 -16.07403557 -7.04672377 0 0 Z " fill="#62CA6A" transform="translate(544,243)"/>
<path d="M0 0 C14 0 14 0 17.1328125 2.8671875 C18.17749023 4.77636719 18.17749023 4.77636719 19.125 6.875 C19.90576494 8.33828904 20.69112126 9.79913527 21.48046875 11.2578125 C22.07867432 12.41458496 22.07867432 12.41458496 22.68896484 13.59472656 C24.99527492 17.82596807 27.73038198 21.76807994 30.4375 25.75 C30.94619629 26.5116748 31.45489258 27.27334961 31.97900391 28.05810547 C33.87456142 30.89412421 35.76102136 33.69079297 37.84765625 36.390625 C39 38 39 38 39 40 C42.79856695 36.57073817 45.30209902 32.66813899 48 28.375 C48.96501197 26.86125573 49.93120148 25.34826163 50.8984375 23.8359375 C51.40084961 23.04928711 51.90326172 22.26263672 52.42089844 21.45214844 C55.11233763 17.27267792 57.86643072 13.13535522 60.625 9 C61.14578125 8.2167334 61.6665625 7.4334668 62.203125 6.62646484 C62.68523437 5.90410645 63.16734375 5.18174805 63.6640625 4.4375 C64.09154785 3.79683594 64.5190332 3.15617188 64.95947266 2.49609375 C66 1 66 1 67 0 C71.95 0 76.9 0 82 0 C82 26.07 82 52.14 82 79 C76.06 79 70.12 79 64 79 C63.67 64.81 63.34 50.62 63 36 C58.26734363 43.86763834 58.26734363 43.86763834 53.63989258 51.796875 C48.82172353 59.40431173 48.82172353 59.40431173 43.77905273 61.05322266 C39.17308527 61.37087558 35.62965698 61.27157602 31.90112305 58.36230469 C30.1309456 56.12810521 28.7829553 53.88677617 27.4375 51.375 C26.95732422 50.56675781 26.47714844 49.75851562 25.98242188 48.92578125 C25.08275918 47.40783185 24.2023019 45.87818454 23.34936523 44.33349609 C21.69697303 41.47596675 19.83100426 38.74650639 18 36 C17.67 50.19 17.34 64.38 17 79 C11.39 79 5.78 79 0 79 C0 52.93 0 26.86 0 0 Z " fill="#61CA6B" transform="translate(271,546)"/>
<path d="M0 0 C6.6 0 13.2 0 20 0 C20 9.9 20 19.8 20 30 C30.89 30 41.78 30 53 30 C53 20.1 53 10.2 53 0 C59.6 0 66.2 0 73 0 C73 26.07 73 52.14 73 79 C66.4 79 59.8 79 53 79 C53 68.44 53 57.88 53 47 C42.11 47 31.22 47 20 47 C20 57.56 20 68.12 20 79 C13.4 79 6.8 79 0 79 C0 52.93 0 26.86 0 0 Z " fill="#63CB6C" transform="translate(1041,546)"/>
<path d="M0 0 C6.27 0 12.54 0 19 0 C19.01401855 2.40659912 19.01401855 2.40659912 19.02832031 4.86181641 C19.06823277 10.82205837 19.13399649 16.78178488 19.20751953 22.74169922 C19.23572159 25.31975679 19.25693987 27.89790071 19.27099609 30.47607422 C19.29243509 34.18501975 19.33909396 37.89292793 19.390625 41.6015625 C19.39185364 42.75177887 19.39308228 43.90199524 19.39434814 45.08706665 C19.50789716 51.31005148 19.69161317 55.33889679 24 60 C29.18556483 62.99167202 33.17368861 63.56383659 39 63 C42.20824247 61.50282018 44.72932114 59.72481464 47 57 C48.00685387 53.97943839 48.15372686 51.86445386 48.20532227 48.70239258 C48.22526749 47.62149857 48.24521271 46.54060455 48.26576233 45.42695618 C48.28247482 44.26125595 48.29918732 43.09555573 48.31640625 41.89453125 C48.33718735 40.70018967 48.35796844 39.50584808 48.37937927 38.27531433 C48.44484276 34.45443557 48.5037451 30.63348724 48.5625 26.8125 C48.60568824 24.22460214 48.64930263 21.63671135 48.69335938 19.04882812 C48.80052095 12.69929032 48.90179764 6.34968244 49 0 C55.6 0 62.2 0 69 0 C69.0992821 7.79211766 69.17166561 15.58386259 69.21972656 23.37646484 C69.2397738 26.0243166 69.26701884 28.67212446 69.30175781 31.31982422 C69.35057744 35.13780588 69.37303881 38.95519936 69.390625 42.7734375 C69.41127014 43.94675629 69.43191528 45.12007507 69.45318604 46.32894897 C69.455492 54.88046614 68.02531788 61.77397229 62.9921875 68.8046875 C57.78472528 73.89685535 53.01277085 76.96520638 46 79 C45.40960937 79.18949219 44.81921875 79.37898437 44.2109375 79.57421875 C34.38312467 81.46685408 22.74875154 81.07154191 14 76 C6.56647986 70.81554206 2.47448014 65.71755914 0 57 C-0.50659159 52.50643891 -0.46865419 48.07196885 -0.390625 43.5546875 C-0.38496521 42.30366241 -0.37930542 41.05263733 -0.37347412 39.76370239 C-0.35500183 36.47221292 -0.31920329 33.18153947 -0.2746582 29.89031982 C-0.23339813 26.51812616 -0.21539825 23.14581199 -0.1953125 19.7734375 C-0.15140601 13.18193723 -0.08246044 6.59112612 0 0 Z " fill="#63CB6C" transform="translate(1158,546)"/>
<path d="M0 0 C18.81 0 37.62 0 57 0 C57 5.28 57 10.56 57 16 C44.46 16 31.92 16 19 16 C19 20.95 19 25.9 19 31 C30.55 31 42.1 31 54 31 C54 36.28 54 41.56 54 47 C42.45 47 30.9 47 19 47 C19 52.28 19 57.56 19 63 C31.54 63 44.08 63 57 63 C57 68.28 57 73.56 57 79 C38.19 79 19.38 79 0 79 C0 52.93 0 26.86 0 0 Z " fill="#64CB6D" transform="translate(397,546)"/>
<path d="M0 0 C0.99 1.485 0.99 1.485 2 3 C-5.29840547 11.44646925 -5.29840547 11.44646925 -9 15 C-9.66 14.731875 -10.32 14.46375 -11 14.1875 C-11.99 13.795625 -12.98 13.40375 -14 13 C-15.7634375 12.195625 -15.7634375 12.195625 -17.5625 11.375 C-24.13328494 8.95287701 -31.82969272 8.66770556 -38.3125 11.5 C-43.49160446 14.52295009 -48.09683344 19.29050031 -50 25 C-50.89925175 36.52497399 -50.89925175 36.52497399 -47 47 C-41.70681718 52.55669625 -37.15237621 55.97145689 -29.375 56.375 C-24.3122791 56.29175646 -20.19369489 54.88927751 -15.54296875 52.97265625 C-12.93686911 51.97585316 -10.79042905 51.19259783 -8 51 C-5.8671875 52.328125 -5.8671875 52.328125 -3.875 54.25 C-3.21242188 54.87390625 -2.54984375 55.4978125 -1.8671875 56.140625 C-0.94292969 57.06101562 -0.94292969 57.06101562 0 58 C0.86238281 58.85851562 0.86238281 58.85851562 1.7421875 59.734375 C2.15726563 60.15203125 2.57234375 60.5696875 3 61 C1.51240873 65.11537226 -0.71348865 66.2471937 -4.5625 68.125 C-5.55378906 68.62257813 -6.54507813 69.12015625 -7.56640625 69.6328125 C-19.10083792 74.22558962 -34.00526196 75.49736136 -45.6875 70.875 C-56.57080148 65.47129661 -64.62354761 58.10486472 -69.08203125 46.6484375 C-72.2819203 33.93058059 -70.727412 21.92985238 -64.0625 10.75 C-63.381875 9.8425 -62.70125 8.935 -62 8 C-61.29875 7.01 -60.5975 6.02 -59.875 5 C-44.8632959 -12.59833619 -18.02333216 -10.89718391 0 0 Z " fill="#62CA6B" transform="translate(738,553)"/>
<path d="M0 0 C1.58206057 0.00667536 3.16410534 0.0186375 4.74609375 0.03515625 C5.55240234 0.03966797 6.35871094 0.04417969 7.18945312 0.04882812 C9.18753131 0.06065107 11.18557158 0.07858711 13.18359375 0.09765625 C20.41940217 17.53364256 27.3141841 35.08453452 34.05493164 52.71704102 C34.36339523 53.52366684 34.67185883 54.33029266 34.9896698 55.16136169 C35.58693184 56.72403876 36.18348051 58.2869887 36.7792511 59.85023499 C38.6274565 64.68853277 40.53881388 69.49486643 42.55688477 74.26538086 C43.18359375 76.09765625 43.18359375 76.09765625 43.18359375 79.09765625 C37.24359375 79.09765625 31.30359375 79.09765625 25.18359375 79.09765625 C20.71790886 67.77766431 16.39665593 56.40744199 12.1446228 45.00576782 C11.5446883 43.39790749 10.94363073 41.79046577 10.34146118 40.18344116 C9.48472206 37.89565685 8.63237995 35.60628233 7.78125 33.31640625 C7.51906677 32.61816238 7.25688354 31.91991852 6.98675537 31.20051575 C5.18359375 26.32655202 5.18359375 26.32655202 5.18359375 24.09765625 C4.52359375 24.09765625 3.86359375 24.09765625 3.18359375 24.09765625 C3.10109375 24.85973389 3.01859375 25.62181152 2.93359375 26.40698242 C1.89116848 31.53665129 0.03755026 36.26215859 -1.81640625 41.1484375 C-2.21214844 42.2029863 -2.60789062 43.2575351 -3.015625 44.34403992 C-3.85026694 46.56472928 -4.68756379 48.78442237 -5.52734375 51.00317383 C-6.81754733 54.41317212 -8.09887422 57.82640661 -9.37890625 61.24023438 C-10.19088784 63.39733063 -11.00337031 65.55423842 -11.81640625 67.7109375 C-12.39455078 69.24987419 -12.39455078 69.24987419 -12.984375 70.81990051 C-13.34144531 71.76145493 -13.69851563 72.70300934 -14.06640625 73.6730957 C-14.3809375 74.50549271 -14.69546875 75.33788971 -15.01953125 76.19551086 C-15.81640625 78.09765625 -15.81640625 78.09765625 -16.81640625 79.09765625 C-18.15908038 79.18397499 -19.50614947 79.20472098 -20.8515625 79.1953125 C-21.66044922 79.19208984 -22.46933594 79.18886719 -23.30273438 79.18554688 C-24.15287109 79.17716797 -25.00300781 79.16878906 -25.87890625 79.16015625 C-26.73291016 79.15564453 -27.58691406 79.15113281 -28.46679688 79.14648438 C-30.58336288 79.13465998 -32.6998931 79.11672394 -34.81640625 79.09765625 C-34.20771085 74.36708004 -32.85231926 70.21159625 -31.05664062 65.82299805 C-30.77524734 65.1214711 -30.49385406 64.41994415 -30.20393372 63.69715881 C-29.2785755 61.39463641 -28.34455006 59.0957438 -27.41015625 56.796875 C-26.76333533 55.19377322 -26.11697979 53.5904836 -25.47106934 51.98701477 C-24.11970681 48.6358946 -22.76432507 45.28643966 -21.40576172 41.93823242 C-19.66122406 37.63849681 -17.92434082 33.33572178 -16.19011688 29.03181744 C-14.85745114 25.72567065 -13.52202743 22.42064403 -12.18562317 19.11600685 C-11.54392256 17.5289382 -10.90279852 15.9416363 -10.26225281 14.35410118 C-9.36951783 12.14343979 -8.47338071 9.93419054 -7.57617188 7.7253418 C-7.31016678 7.06511017 -7.04416168 6.40487854 -6.77009583 5.72463989 C-4.48366469 0.11473042 -4.48366469 0.11473042 0 0 Z " fill="#62CA6B" transform="translate(806.81640625,545.90234375)"/>
<path d="M0 0 C5.94 0 11.88 0 18 0 C18 20.79 18 41.58 18 63 C29.88 63 41.76 63 54 63 C54 68.28 54 73.56 54 79 C36.18 79 18.36 79 0 79 C0 52.93 0 26.86 0 0 Z " fill="#62CA6B" transform="translate(888,546)"/>
<path d="M0 0 C6.6 0 13.2 0 20 0 C20 26.07 20 52.14 20 79 C13.4 79 6.8 79 0 79 C0 52.93 0 26.86 0 0 Z " fill="#63CB6C" transform="translate(609,546)"/>
<path d="M0 0 C25.01209207 0 25.01209207 0 30.21484375 4.05078125 C35.3409016 9.64794288 37.27061658 14.99122092 37.5625 22.5625 C37.26126363 29.30068187 35.95903167 34.74646755 31.3515625 39.8125 C21.76735902 48.51780272 14.41091629 46 0 46 C0 30.82 0 15.64 0 0 Z " fill="#FDFEFD" transform="translate(515,563)"/>
<path d="M0 0 C4.68646705 2.81657452 8.31773977 5.87313804 10.4375 11 C11.4179558 16.37236055 11.59994246 21.41815412 9.32421875 26.47265625 C5.4443822 32.06756879 0.18180571 35.71310068 -6.5625 37 C-14.45922275 37.59322671 -22.10780695 38.16674965 -28.5625 33 C-33.54021133 28.08792882 -35.72127532 24.83751695 -35.875 17.75 C-35.82070556 12.27229429 -35.46168033 9.10440035 -31.5625 5 C-23.1315673 -3.22304669 -10.7782503 -4.86495492 0 0 Z " fill="#0C6281" transform="translate(1210.5625,673)"/>
<path d="M0 0 C2.64 0 5.28 0 8 0 C8.84291786 4.03972867 9.67262865 8.08206109 10.5 12.125 C10.73847656 13.26710938 10.97695313 14.40921875 11.22265625 15.5859375 C11.56103516 17.24882813 11.56103516 17.24882813 11.90625 18.9453125 C12.22045898 20.46922607 12.22045898 20.46922607 12.54101562 22.02392578 C13.00988982 25.06412599 13.0800787 27.92898194 13 31 C15.2718826 30.14383273 15.2718826 30.14383273 15.98974609 27.45556641 C16.33086426 26.34874512 16.67198242 25.24192383 17.0234375 24.1015625 C17.59578125 22.29945313 17.59578125 22.29945313 18.1796875 20.4609375 C18.9765752 17.91376617 19.76270722 15.36365919 20.546875 12.8125 C20.93101562 11.60851562 21.31515625 10.40453125 21.7109375 9.1640625 C22.05431152 8.05498535 22.39768555 6.9459082 22.75146484 5.80322266 C24.1154166 2.74086559 25.09341257 1.60776826 28 0 C32.07443905 -0.59264568 34.11389742 -0.64367829 37.484375 1.8046875 C41.29854068 5.87139422 42.34479993 11.38923109 43.8125 16.625 C44.27946289 18.19894531 44.27946289 18.19894531 44.75585938 19.8046875 C47 27.49888393 47 27.49888393 47 31 C47.66 30.67 48.32 30.34 49 30 C49.7400648 27.22419281 49.7400648 27.22419281 50.25390625 23.84765625 C50.46853516 22.59662109 50.68316406 21.34558594 50.90429688 20.05664062 C51.12418804 18.72534128 51.34358333 17.39395994 51.5625 16.0625 C51.99696673 13.46928658 52.43734151 10.87718127 52.87890625 8.28515625 C53.16616577 6.55084351 53.16616577 6.55084351 53.45922852 4.78149414 C54 2 54 2 55 0 C57.64 0 60.28 0 63 0 C62.22819166 6.96323785 61.01009467 13.80920371 59.6875 20.6875 C59.48705078 21.80189453 59.28660156 22.91628906 59.08007812 24.06445312 C57.0356803 34.62823014 57.0356803 34.62823014 53 38 C50.78125 38.62890625 50.78125 38.62890625 48.5 38.5625 C47.7471875 38.56378906 46.994375 38.56507813 46.21875 38.56640625 C42.97064834 37.73722537 42.02655268 36.71558058 40 34 C38.51107727 30.59401421 37.37464091 27.10294683 36.25 23.5625 C35.93417969 22.62083984 35.61835938 21.67917969 35.29296875 20.70898438 C33.85521421 16.29924806 32.81450269 12.67651234 33 8 C32.01 8 31.02 8 30 8 C29.89300781 8.95519531 29.78601563 9.91039062 29.67578125 10.89453125 C28.99396773 15.6385682 27.61691444 20.12259581 26.1875 24.6875 C25.93935547 25.52861328 25.69121094 26.36972656 25.43554688 27.23632812 C22.93448563 35.26136178 22.93448563 35.26136178 19 38 C16.78125 38.53125 16.78125 38.53125 14.5 38.5 C13.37078125 38.51546875 13.37078125 38.51546875 12.21875 38.53125 C9.09957404 37.78440505 8.03169481 36.4702989 6 34 C4.99511719 30.85546875 4.99511719 30.85546875 4.296875 27.1875 C4.10560028 26.21139771 4.10560028 26.21139771 3.91046143 25.21557617 C3.50912961 23.14619544 3.12979132 21.07342927 2.75 19 C2.48050162 17.60651199 2.20968133 16.21327895 1.9375 14.8203125 C0 4.72703591 0 4.72703591 0 0 Z " fill="#0B6181" transform="translate(273,671)"/>
<path d="M0 0 C4.846875 -0.061875 9.69375 -0.12375 14.6875 -0.1875 C16.96853638 -0.22846802 16.96853638 -0.22846802 19.2956543 -0.27026367 C21.1041687 -0.28150269 21.1041687 -0.28150269 22.94921875 -0.29296875 C24.79519653 -0.31653442 24.79519653 -0.31653442 26.6784668 -0.34057617 C31.1488642 0.11779975 33.72383126 1.66266413 36.79296875 4.87890625 C38.95685704 8.68146722 38.43441849 12.75235251 38 17 C37.35800351 18.67632417 36.70105843 20.34750513 36 22 C36.66 22.99 37.32 23.98 38 25 C38.1953125 28.13671875 38.1953125 28.13671875 38.125 31.6875 C38.10695313 32.86699219 38.08890625 34.04648437 38.0703125 35.26171875 C38.04710937 36.16535156 38.02390625 37.06898438 38 38 C35.36 38 32.72 38 30 38 C29.93941406 37.21753906 29.87882813 36.43507813 29.81640625 35.62890625 C29.73261719 34.61699219 29.64882813 33.60507812 29.5625 32.5625 C29.48128906 31.55316406 29.40007813 30.54382813 29.31640625 29.50390625 C29.26788532 27.06359221 29.26788532 27.06359221 28 26 C26.44051458 25.84313751 24.87457332 25.74923361 23.30859375 25.68359375 C21.89223633 25.62075195 21.89223633 25.62075195 20.44726562 25.55664062 C19.45404297 25.51732422 18.46082031 25.47800781 17.4375 25.4375 C16.44041016 25.39431641 15.44332031 25.35113281 14.41601562 25.30664062 C11.94418889 25.20019833 9.4721134 25.09956241 7 25 C7 29.29 7 33.58 7 38 C4.69 38 2.38 38 0 38 C0 25.46 0 12.92 0 0 Z " fill="#0D6382" transform="translate(791,671)"/>
<path d="M0 0 C4.29 0 8.58 0 13 0 C13 5.61 13 11.22 13 17 C18.28 17 23.56 17 29 17 C29 21.62 29 26.24 29 31 C23.72 31 18.44 31 13 31 C13 36.28 13 41.56 13 47 C8.71 47 4.42 47 0 47 C0 41.72 0 36.44 0 31 C-5.28 31 -10.56 31 -16 31 C-16 26.38 -16 21.76 -16 17 C-10.72 17 -5.44 17 0 17 C0 11.39 0 5.78 0 0 Z " fill="#F9FDF9" transform="translate(520,251)"/>
<path d="M0 0 C2.58535004 0.38209588 3.84432271 0.80514744 6.03515625 2.30078125 C7.559906 4.81074255 8.87268419 7.23016324 10.14453125 9.86328125 C10.51620422 10.61037354 10.8878772 11.35746582 11.27081299 12.12719727 C12.05287106 13.70474106 12.82917395 15.28514925 13.60009766 16.86816406 C14.78348389 19.29734832 15.98380934 21.71754136 17.1875 24.13671875 C17.9450118 25.67007862 18.70155585 27.20391704 19.45703125 28.73828125 C19.81633728 29.46539307 20.17564331 30.19250488 20.5458374 30.94165039 C23.03515625 36.06636732 23.03515625 36.06636732 23.03515625 38.30078125 C21.79765625 38.42453125 20.56015625 38.54828125 19.28515625 38.67578125 C18.24101563 38.78019531 18.24101563 38.78019531 17.17578125 38.88671875 C16.469375 38.69335938 15.76296875 38.5 15.03515625 38.30078125 C14.54015625 37.31078125 14.04515625 36.32078125 13.53515625 35.30078125 C11.39572631 32.08960595 11.39572631 32.08960595 8.47167969 31.80712891 C5.22528083 31.70976785 2.02964436 31.77898886 -1.21484375 31.92578125 C-2.34148438 31.95285156 -3.468125 31.97992187 -4.62890625 32.0078125 C-7.40948612 32.07850521 -10.18619734 32.17713085 -12.96484375 32.30078125 C-13.95484375 34.28078125 -14.94484375 36.26078125 -15.96484375 38.30078125 C-18.93484375 38.30078125 -21.90484375 38.30078125 -24.96484375 38.30078125 C-8.53881845 -0.04935733 -8.53881845 -0.04935733 0 0 Z " fill="#086080" transform="translate(700.96484375,670.69921875)"/>
<path d="M0 0 C11.88 0 23.76 0 36 0 C36 2.64 36 5.28 36 8 C26.76 8 17.52 8 8 8 C8 10.64 8 13.28 8 16 C17.24 16 26.48 16 36 16 C36 18.31 36 20.62 36 23 C26.76 23 17.52 23 8 23 C8 25.64 8 28.28 8 31 C17.24 31 26.48 31 36 31 C36 33.31 36 35.62 36 38 C31.19451403 38.04936883 26.38917506 38.08570443 21.58349609 38.10986328 C19.94805328 38.11993254 18.31262851 38.13358881 16.67724609 38.15087891 C14.3290563 38.17508705 11.98110412 38.18647357 9.6328125 38.1953125 C8.53273361 38.21079636 8.53273361 38.21079636 7.41043091 38.22659302 C5.60537303 38.22699368 3.8009217 38.12212755 2 38 C0 36 0 36 -0.22705078 32.46826172 C-0.22655032 30.95536674 -0.21549111 29.44244799 -0.1953125 27.9296875 C-0.19329834 27.22400635 -0.19128418 26.5183252 -0.18920898 25.79125977 C-0.17873636 23.15244049 -0.15081375 20.51371379 -0.125 17.875 C-0.08375 11.97625 -0.0425 6.0775 0 0 Z " fill="#076080" transform="translate(396,671)"/>
<path d="M0 0 C11.88 0 23.76 0 36 0 C36 2.64 36 5.28 36 8 C26.76 8 17.52 8 8 8 C8 10.64 8 13.28 8 16 C16.91 16 25.82 16 35 16 C35 18.31 35 20.62 35 23 C26.09 23 17.18 23 8 23 C8 25.64 8 28.28 8 31 C17.24 31 26.48 31 36 31 C36 33.31 36 35.62 36 38 C31.19451403 38.04936883 26.38917506 38.08570443 21.58349609 38.10986328 C19.94805328 38.11993254 18.31262851 38.13358881 16.67724609 38.15087891 C14.3290563 38.17508705 11.98110412 38.18647357 9.6328125 38.1953125 C8.53273361 38.21079636 8.53273361 38.21079636 7.41043091 38.22659302 C5.60537303 38.22699368 3.8009217 38.12212755 2 38 C0 36 0 36 -0.22705078 32.46826172 C-0.22655032 30.95536674 -0.21549111 29.44244799 -0.1953125 27.9296875 C-0.19329834 27.22400635 -0.19128418 26.5183252 -0.18920898 25.79125977 C-0.17873636 23.15244049 -0.15081375 20.51371379 -0.125 17.875 C-0.08375 11.97625 -0.0425 6.0775 0 0 Z " fill="#0B6181" transform="translate(895,671)"/>
<path d="M0 0 C2.64 0 5.28 0 8 0 C8.01458252 0.76666992 8.02916504 1.53333984 8.04418945 2.32324219 C8.1186922 5.79933493 8.21534646 9.27446968 8.3125 12.75 C8.33505859 13.9565625 8.35761719 15.163125 8.38085938 16.40625 C8.41630859 17.56640625 8.45175781 18.7265625 8.48828125 19.921875 C8.51446533 20.99018555 8.54064941 22.05849609 8.56762695 23.15917969 C9.05529674 26.36331613 9.6470023 27.7810193 12 30 C14.15788354 30.61134607 14.15788354 30.61134607 16.5625 30.53125 C17.88121094 30.53898438 17.88121094 30.53898438 19.2265625 30.546875 C20.59941406 30.52367187 20.59941406 30.52367187 22 30.5 C22.91523437 30.51546875 23.83046875 30.5309375 24.7734375 30.546875 C25.65257812 30.54171875 26.53171875 30.5365625 27.4375 30.53125 C28.24058594 30.52673828 29.04367187 30.52222656 29.87109375 30.51757812 C32.12460669 30.15564556 32.12460669 30.15564556 33.75317383 28.34667969 C35.31949372 25.39867365 35.43004722 23.25407322 35.51171875 19.921875 C35.54716797 18.76171875 35.58261719 17.6015625 35.61914062 16.40625 C35.64169922 15.1996875 35.66425781 13.993125 35.6875 12.75 C35.72166016 11.52796875 35.75582031 10.3059375 35.79101562 9.046875 C35.87347162 6.03134154 35.94263201 3.01609806 36 0 C38.31 0 40.62 0 43 0 C43.09941096 4.0200263 43.17172063 8.03956963 43.21972656 12.06054688 C43.23975319 13.42623368 43.26698332 14.79183569 43.30175781 16.15722656 C43.35066432 18.12787102 43.37091347 20.09915983 43.390625 22.0703125 C43.41157227 23.25383301 43.43251953 24.43735352 43.45410156 25.65673828 C42.76453584 30.73357322 40.63449071 33.7408652 36.60693359 36.84350586 C31.79876903 38.97651537 26.80726704 38.55354447 21.625 38.5625 C20.51382812 38.59923828 19.40265625 38.63597656 18.2578125 38.67382812 C11.97054914 38.70750989 7.94403891 38.26376499 3.28271484 33.87866211 C0.25971823 29.45118611 -0.24725602 24.97285794 -0.1953125 19.7265625 C-0.18886719 18.57285156 -0.18242188 17.41914062 -0.17578125 16.23046875 C-0.15902344 15.04066406 -0.14226562 13.85085938 -0.125 12.625 C-0.11597656 11.41199219 -0.10695313 10.19898438 -0.09765625 8.94921875 C-0.07416588 5.96594227 -0.04131682 2.98307406 0 0 Z " fill="#0A6180" transform="translate(1286,671)"/>
<path d="M0 0 C1.11503906 0.00644531 2.23007812 0.01289062 3.37890625 0.01953125 C4.53777344 0.03628906 5.69664062 0.05304687 6.890625 0.0703125 C8.65212891 0.08384766 8.65212891 0.08384766 10.44921875 0.09765625 C13.34656036 0.12121187 16.24348941 0.15410598 19.140625 0.1953125 C19.140625 2.8353125 19.140625 5.4753125 19.140625 8.1953125 C18.43977783 8.19942139 17.73893066 8.20353027 17.0168457 8.20776367 C13.82809295 8.24074622 10.64123895 8.31139582 7.453125 8.3828125 C5.79893555 8.39151367 5.79893555 8.39151367 4.11132812 8.40039062 C-2.55903478 8.37279051 -2.55903478 8.37279051 -8.06640625 11.62109375 C-10.39335411 14.96196225 -11.06015708 16.49107309 -10.796875 20.5078125 C-10.76464844 21.26707031 -10.73242188 22.02632812 -10.69921875 22.80859375 C-9.405986 26.48378077 -7.26931195 28.50169535 -3.859375 30.1953125 C-0.06543828 30.92029859 3.66055753 30.98542824 7.515625 31.0078125 C9.04896484 31.04551758 9.04896484 31.04551758 10.61328125 31.08398438 C13.12278312 31.1426176 15.63055041 31.17907122 18.140625 31.1953125 C18.140625 33.5053125 18.140625 35.8153125 18.140625 38.1953125 C14.14101601 38.34169459 10.14210442 38.42974573 6.140625 38.5078125 C5.01527344 38.54970703 3.88992188 38.59160156 2.73046875 38.63476562 C-4.41647239 38.73925307 -9.43365378 38.09239145 -14.859375 33.1953125 C-19.01486924 27.97430692 -20.24822631 24.00094081 -20.13671875 17.34765625 C-19.45503891 12.05743664 -16.85675801 7.77997648 -12.859375 4.3203125 C-8.29014718 1.08377613 -5.65711818 -0.0577257 0 0 Z " fill="#0B6181" transform="translate(589.859375,670.8046875)"/>
<path d="M0 0 C2.30021781 1.94080877 2.8705229 3.1280783 3.30859375 6.078125 C3.5292683 10.11713797 3.35263814 12.40807169 1.25 15.9375 C-3.99429607 20.74477139 -9.45525128 20.64755283 -16.33984375 20.4609375 C-20.79660795 19.89968011 -22.8712509 18.72128751 -25.8984375 15.5078125 C-28.46689075 11.99212827 -28.49455118 9.30966029 -28 5 C-25.63192805 0.78821488 -23.01342516 -1.57620403 -18.5625 -3.4375 C-11.1119102 -4.61390892 -6.31782548 -4.08381962 0 0 Z " fill="#F8FBFB" transform="translate(1210,682)"/>
<path d="M0 0 C9.40449754 -1.22445538 9.40449754 -1.22445538 13.18359375 1.67578125 C14.91740601 3.71534105 16.46045426 5.81200428 18 8 C18.556875 8.54011719 19.11375 9.08023438 19.6875 9.63671875 C21 11 21 11 21 13 C26.71383722 8.29375682 26.71383722 8.29375682 31.3125 2.5625 C34.52431322 -0.49992655 35.5134821 -0.36951656 39.8125 -0.375 C41.54351663 -0.27895945 43.27402225 -0.16322732 45 0 C44.2575 0.886875 43.515 1.77375 42.75 2.6875 C42.21503906 3.33460938 41.68007812 3.98171875 41.12890625 4.6484375 C39.45999361 6.49189697 37.81646907 8.08484494 35.96484375 9.7265625 C30.12793107 15.11085231 26.44164351 19.16428979 25.81176758 27.33666992 C25.72256563 30.91215181 25.79157136 34.42865537 26 38 C23.69 38 21.38 38 19 38 C19.05542969 36.82824219 19.11085938 35.65648437 19.16796875 34.44921875 C19.52832857 24.9779271 19.52832857 24.9779271 15.73046875 16.63671875 C12.92836744 13.92661529 10.02197035 11.46022009 7 9 C5.56787593 7.49198559 4.1661695 5.95381781 2.8125 4.375 C2.26207031 3.74335937 1.71164062 3.11171875 1.14453125 2.4609375 C0 1 0 1 0 0 Z " fill="#09607F" transform="translate(1073,671)"/>
<path d="M0 0 C3.56295812 -0.08104454 7.12406707 -0.14052442 10.6875 -0.1875 C11.69490234 -0.21263672 12.70230469 -0.23777344 13.74023438 -0.26367188 C23.01082132 -0.35545986 23.01082132 -0.35545986 27 3 C29 5 29 5 29.375 7.8125 C28.9175983 11.70041449 27.69507803 13.22565497 25 16 C22.44276771 17.27861615 20.63262898 17.11336609 17.7734375 17.09765625 C16.7421875 17.09443359 15.7109375 17.09121094 14.6484375 17.08789062 C13.02808594 17.07532227 13.02808594 17.07532227 11.375 17.0625 C9.74304687 17.05573242 9.74304687 17.05573242 8.078125 17.04882812 C5.38539338 17.0370179 2.69268991 17.01908205 0 17 C0 11.39 0 5.78 0 0 Z " fill="#FDFEFD" transform="translate(1289,592)"/>
<path d="M0 0 C3.04263267 -0.10845027 6.08136204 -0.18752063 9.125 -0.25 C9.9809375 -0.28351562 10.836875 -0.31703125 11.71875 -0.3515625 C17.50682881 -0.44060987 20.53452388 0.26212542 25 4 C26 5 26 5 26.375 7.75 C25.87951481 12.044205 24.29314471 13.31953337 21 16 C18.23434618 16.92188461 16.61716298 17.11785222 13.76953125 17.09765625 C12.96708984 17.09443359 12.16464844 17.09121094 11.33789062 17.08789062 C10.50451172 17.07951172 9.67113281 17.07113281 8.8125 17.0625 C7.96751953 17.05798828 7.12253906 17.05347656 6.25195312 17.04882812 C4.16793845 17.03705403 2.08396023 17.0191189 0 17 C0 11.39 0 5.78 0 0 Z " fill="#F8FCF8" transform="translate(1289,561)"/>
<path d="M0 0 C0.33 0 0.66 0 1 0 C1 60.39 1 120.78 1 183 C0.34 183 -0.32 183 -1 183 C-1.17711488 159.43514939 -1.3427998 135.8702426 -1.49477577 112.30521584 C-1.56560473 101.36423851 -1.64021238 90.42331104 -1.72363281 79.48242188 C-1.79630949 69.94936982 -1.86198084 60.41630005 -1.91914403 50.88314188 C-1.94967507 45.8326803 -1.98377892 40.78229849 -2.02626419 35.73192215 C-2.06610362 30.98293233 -2.09660966 26.23397599 -2.11981392 21.48487663 C-2.13002234 19.73768039 -2.14370371 17.99050062 -2.16103554 16.24336052 C-2.18410908 13.86617493 -2.19492491 11.48924678 -2.20254517 9.11196899 C-2.2122618 8.41353304 -2.22197843 7.71509708 -2.2319895 6.99549639 C-2.22824242 2.22824242 -2.22824242 2.22824242 0 0 Z " fill="#2A708C" transform="translate(558,316)"/>
<path d="M0 0 C5.28 0 10.56 0 16 0 C16 0.33 16 0.66 16 1 C11.05 1 6.1 1 1 1 C1 25.75 1 50.5 1 76 C17.83 76 34.66 76 52 76 C52 72.04 52 68.08 52 64 C40.78 64 29.56 64 18 64 C18 63.67 18 63.34 18 63 C29.88 63 41.76 63 54 63 C54 67.95 54 72.9 54 78 C36.18 78 18.36 78 0 78 C0 52.26 0 26.52 0 0 Z " fill="#59C562" transform="translate(888,547)"/>
<path d="M0 0 C3.62493334 -0.05787784 7.24974857 -0.0935542 10.875 -0.125 C11.90753906 -0.14175781 12.94007813 -0.15851562 14.00390625 -0.17578125 C14.99003906 -0.18222656 15.97617187 -0.18867187 16.9921875 -0.1953125 C18.35899658 -0.21102295 18.35899658 -0.21102295 19.75341797 -0.22705078 C22 0 22 0 24 2 C24.25 4.5 24.25 4.5 24 7 C22 9 22 9 19.75341797 9.22705078 C18.84221191 9.21657715 17.93100586 9.20610352 16.9921875 9.1953125 C16.00605469 9.18886719 15.01992188 9.18242188 14.00390625 9.17578125 C12.45509766 9.15064453 12.45509766 9.15064453 10.875 9.125 C9.83472656 9.11597656 8.79445313 9.10695313 7.72265625 9.09765625 C5.14820908 9.07403747 2.57421788 9.04110149 0 9 C0 6.03 0 3.06 0 0 Z " fill="#F8FAFB" transform="translate(798,679)"/>
<path d="M0 0 C6.6 0 13.2 0 20 0 C20 9.9 20 19.8 20 30 C30.89 30 41.78 30 53 30 C53 30.33 53 30.66 53 31 C48.17619198 31.0246519 43.35242033 31.04283693 38.52856445 31.05493164 C36.88630536 31.05997174 35.24405077 31.06680378 33.60180664 31.07543945 C31.24624521 31.08751926 28.89074291 31.09323139 26.53515625 31.09765625 C25.79660904 31.10281754 25.05806183 31.10797882 24.2971344 31.11329651 C22.53101912 31.1134925 20.76502854 31.06194719 19 31 C18 30 18 30 17.88647461 27.31616211 C17.89171143 26.14835205 17.89694824 24.98054199 17.90234375 23.77734375 C17.90556641 22.51728516 17.90878906 21.25722656 17.91210938 19.95898438 C17.92046597 18.61848891 17.92893093 17.27799412 17.9375 15.9375 C17.9425134 14.59310058 17.94707658 13.2486994 17.95117188 11.90429688 C17.96300503 8.60284567 17.98094114 5.3014174 18 2 C12.72 2 7.44 2 2 2 C1.67 27.41 1.34 52.82 1 79 C0.67 79 0.34 79 0 79 C0 52.93 0 26.86 0 0 Z " fill="#85D48A" transform="translate(1041,546)"/>
<path d="M0 0 C31.02 0 62.04 0 94 0 C91 3 91 3 87.18452454 3.32279968 C85.55815718 3.31373594 83.93183385 3.28775006 82.3059082 3.2487793 C80.9738887 3.23480606 80.9738887 3.23480606 79.61495972 3.22055054 C76.67651461 3.18614504 73.73888692 3.13025683 70.80078125 3.07421875 C68.76484421 3.04618981 66.72888835 3.01949897 64.69291687 2.99409485 C59.33163619 2.92359369 53.9708044 2.83488227 48.60986328 2.74243164 C43.14045412 2.65131532 37.67081637 2.57734647 32.20117188 2.50195312 C21.46715369 2.3514586 10.73353154 2.18173352 0 2 C0 1.34 0 0.68 0 0 Z " fill="#6DCC73" transform="translate(340,306)"/>
<path d="M0 0 C3.875 1.75 3.875 1.75 5 4 C-51.76 4 -108.52 4 -167 4 C-167 3.67 -167 3.34 -167 3 C-165.73632992 2.99503478 -165.73632992 2.99503478 -164.44713116 2.98996925 C-143.96689528 2.90881752 -123.48673398 2.81675093 -103.00660229 2.71247292 C-93.10264321 2.66230963 -83.19869257 2.61586718 -73.29467773 2.578125 C-64.6642965 2.545227 -56.03397999 2.50540801 -47.40367013 2.45720994 C-42.83222334 2.4319231 -38.26081961 2.41014832 -33.68932152 2.39665604 C-29.3891914 2.38385546 -25.08920881 2.36182288 -20.78915977 2.33261681 C-19.20851737 2.32352531 -17.6278512 2.31784715 -16.04718399 2.31578636 C-13.89356643 2.31247486 -11.74036996 2.29702824 -9.58683777 2.2784729 C-7.77689724 2.27017676 -7.77689724 2.27017676 -5.93039227 2.26171303 C-2.80944685 2.21853736 -2.80944685 2.21853736 0 0 Z " fill="#115D7B" transform="translate(454,495)"/>
<path d="M0 0 C11.88 0 23.76 0 36 0 C36 2.31 36 4.62 36 7 C26.76 7 17.52 7 8 7 C8 6.67 8 6.34 8 6 C16.91 6 25.82 6 35 6 C35 4.68 35 3.36 35 2 C24.11 2 13.22 2 2 2 C2.33 13.55 2.66 25.1 3 37 C2.01 36.67 1.02 36.34 0 36 C0 24.12 0 12.24 0 0 Z " fill="#216A87" transform="translate(396,671)"/>
<path d="M0 0 C0.33 0 0.66 0 1 0 C1 25.08 1 50.16 1 76 C6.28 76 11.56 76 17 76 C17 66.1 17 56.2 17 46 C17.66 46.33 18.32 46.66 19 47 C19 57.23 19 67.46 19 78 C12.73 78 6.46 78 0 78 C0 52.26 0 26.52 0 0 Z " fill="#59C661" transform="translate(1042,547)"/>
<path d="M0 0 C1.87988281 0.28881836 1.87988281 0.28881836 4 1 C5.4492036 3.54788844 6.61221266 5.88602523 7.75 8.5625 C8.8225 11.016875 9.895 13.47125 11 16 C5.06 16 -0.88 16 -7 16 C-5.61777376 11.85332129 -4.33435798 8.44059185 -2.375 4.625 C-1.92898438 3.75101563 -1.48296875 2.87703125 -1.0234375 1.9765625 C-0.68570313 1.32429687 -0.34796875 0.67203125 0 0 Z " fill="#F4F8F8" transform="translate(698,679)"/>
<path d="M0 0 C0.66 0.99 1.32 1.98 2 3 C1.01 4.485 1.01 4.485 0 6 C-0.45772063 8.73872955 -0.45772063 8.73872955 -0.625 11.6875 C-0.69976563 12.68136719 -0.77453125 13.67523437 -0.8515625 14.69921875 C-0.90054688 15.45847656 -0.94953125 16.21773437 -1 17 C-3 15 -3 15 -3.3125 11.3125 C-3.22482384 6.95260367 -1.93666181 3.87332363 0 0 Z " fill="#226986" transform="translate(573,679)"/>
<path d="M0 0 C3.63 0 7.26 0 11 0 C9.35 1.98 7.7 3.96 6 6 C5.34 5.01 4.68 4.02 4 3 C4.33 2.67 4.66 2.34 5 2 C3.35 1.67 1.7 1.34 0 1 C0 0.67 0 0.34 0 0 Z " fill="#2D728D" transform="translate(1107,671)"/>
<path d="M0 0 C2.64 0 5.28 0 8 0 C7.67 1.32 7.34 2.64 7 4 C4.69 3.01 2.38 2.02 0 1 C0 0.67 0 0.34 0 0 Z " fill="#29708B" transform="translate(328,671)"/>
<path d="M0 0 C0.66 0 1.32 0 2 0 C2.33 1.32 2.66 2.64 3 4 C2.34 4 1.68 4 1 4 C0.34 5.32 -0.32 6.64 -1 8 C-2 6 -2 6 -1.0625 2.875 C-0.5365625 1.451875 -0.5365625 1.451875 0 0 Z " fill="#E7F7E7" transform="translate(810,570)"/>
<path d="M0 0 C3.875 1.75 3.875 1.75 5 4 C2.36 3.67 -0.28 3.34 -3 3 C-2.01 2.01 -1.02 1.02 0 0 Z " fill="#156281" transform="translate(454,495)"/>
</svg>
